<svg width="384" height="512" xmlns="http://www.w3.org/2000/svg">
 <!--! Font Awesome Pro 6.1.1 by @fontawesome - https://fontawesome.com License - https://fontawesome.com/license (Commercial License) Copyright 2022 Fonticons, Inc. -->

 <g>
  <title>Layer 1</title>
  <path fill="#e0aaff" id="svg_1" d="m0,32l34.9,395.8l157.1,52.2l157.1,-52.2l34.9,-395.8l-384,0zm313.1,80l-4.8,47.3l-115.3,49.3l-0.3,0.1l111.5,0l-12.8,146.6l-98.2,28.7l-98.8,-29.2l-6.4,-73.9l48.9,0l3.2,38.3l52.6,13.3l54.7,-15.4l3.7,-61.6l-166.3,-0.5l0,-0.1l-0.2,0.1l-3.6,-46.3l112.1,-46.7l6.5,-2.7l-122.9,0l-5.8,-47.3l242.2,0z"/>
 </g>
</svg>